<svg id="visual" viewBox="0 0 900 675" width="900" height="675" xmlns="http://www.w3.org/2000/svg" xmlns:xlink="http://www.w3.org/1999/xlink" version="1.1"><rect x="0" y="0" width="900" height="675" fill="#140021"></rect><path d="M600 0L636 0L636 68L509 68L509 135L590 135L590 203L681 203L681 270L465 270L465 338L477 338L477 405L472 405L472 472L665 472L665 540L506 540L506 608L542 608L542 675L0 675L0 608L0 608L0 540L0 540L0 472L0 472L0 405L0 405L0 338L0 338L0 270L0 270L0 203L0 203L0 135L0 135L0 68L0 68L0 0L0 0Z" fill="#9900ff"></path><path d="M433 0L520 0L520 68L425 68L425 135L392 135L392 203L510 203L510 270L459 270L459 338L468 338L468 405L553 405L553 472L409 472L409 540L357 540L357 608L533 608L533 675L0 675L0 608L0 608L0 540L0 540L0 472L0 472L0 405L0 405L0 338L0 338L0 270L0 270L0 203L0 203L0 135L0 135L0 68L0 68L0 0L0 0Z" fill="#8800e2"></path><path d="M360 0L375 0L375 68L416 68L416 135L426 135L426 203L335 203L335 270L377 270L377 338L275 338L275 405L244 405L244 472L352 472L352 540L281 540L281 608L262 608L262 675L0 675L0 608L0 608L0 540L0 540L0 472L0 472L0 405L0 405L0 338L0 338L0 270L0 270L0 203L0 203L0 135L0 135L0 68L0 68L0 0L0 0Z" fill="#7700c6"></path><path d="M136 0L197 0L197 68L165 68L165 135L254 135L254 203L166 203L166 270L310 270L310 338L234 338L234 405L207 405L207 472L218 472L218 540L243 540L243 608L290 608L290 675L0 675L0 608L0 608L0 540L0 540L0 472L0 472L0 405L0 405L0 338L0 338L0 270L0 270L0 203L0 203L0 135L0 135L0 68L0 68L0 0L0 0Z" fill="#6600ab"></path><path d="M101 0L165 0L165 68L74 68L74 135L132 135L132 203L36 203L36 270L167 270L167 338L48 338L48 405L25 405L25 472L68 472L68 540L137 540L137 608L126 608L126 675L0 675L0 608L0 608L0 540L0 540L0 472L0 472L0 405L0 405L0 338L0 338L0 270L0 270L0 203L0 203L0 135L0 135L0 68L0 68L0 0L0 0Z" fill="#560090"></path></svg>