<svg id="visual" viewBox="0 0 900 675" width="900" height="675" xmlns="http://www.w3.org/2000/svg" xmlns:xlink="http://www.w3.org/1999/xlink" version="1.1"><rect x="0" y="0" width="900" height="675" fill="#001220"></rect><defs><linearGradient id="grad1_0" x1="25%" y1="0%" x2="100%" y2="100%"><stop offset="23.333333333333336%" stop-color="#fbae3c" stop-opacity="1"></stop><stop offset="76.66666666666666%" stop-color="#fbae3c" stop-opacity="1"></stop></linearGradient></defs><defs><linearGradient id="grad1_1" x1="25%" y1="0%" x2="100%" y2="100%"><stop offset="23.333333333333336%" stop-color="#fbae3c" stop-opacity="1"></stop><stop offset="76.66666666666666%" stop-color="#cc5867" stop-opacity="1"></stop></linearGradient></defs><defs><linearGradient id="grad1_2" x1="25%" y1="0%" x2="100%" y2="100%"><stop offset="23.333333333333336%" stop-color="#593762" stop-opacity="1"></stop><stop offset="76.66666666666666%" stop-color="#cc5867" stop-opacity="1"></stop></linearGradient></defs><defs><linearGradient id="grad1_3" x1="25%" y1="0%" x2="100%" y2="100%"><stop offset="23.333333333333336%" stop-color="#593762" stop-opacity="1"></stop><stop offset="76.66666666666666%" stop-color="#001220" stop-opacity="1"></stop></linearGradient></defs><defs><linearGradient id="grad2_0" x1="0%" y1="0%" x2="75%" y2="100%"><stop offset="23.333333333333336%" stop-color="#fbae3c" stop-opacity="1"></stop><stop offset="76.66666666666666%" stop-color="#fbae3c" stop-opacity="1"></stop></linearGradient></defs><defs><linearGradient id="grad2_1" x1="0%" y1="0%" x2="75%" y2="100%"><stop offset="23.333333333333336%" stop-color="#cc5867" stop-opacity="1"></stop><stop offset="76.66666666666666%" stop-color="#fbae3c" stop-opacity="1"></stop></linearGradient></defs><defs><linearGradient id="grad2_2" x1="0%" y1="0%" x2="75%" y2="100%"><stop offset="23.333333333333336%" stop-color="#cc5867" stop-opacity="1"></stop><stop offset="76.66666666666666%" stop-color="#593762" stop-opacity="1"></stop></linearGradient></defs><defs><linearGradient id="grad2_3" x1="0%" y1="0%" x2="75%" y2="100%"><stop offset="23.333333333333336%" stop-color="#001220" stop-opacity="1"></stop><stop offset="76.66666666666666%" stop-color="#593762" stop-opacity="1"></stop></linearGradient></defs><g transform="translate(900, 0)"><path d="M0 506.3C-73 506 -146 505.8 -193.7 467.7C-241.5 429.6 -264.1 353.7 -302.6 302.6C-341.2 251.6 -395.8 225.4 -432.4 179.1C-469 132.8 -487.6 66.4 -506.2 0L0 0Z" fill="#232745"></path><path d="M0 379.7C-54.7 379.5 -109.5 379.3 -145.3 350.8C-181.1 322.2 -198.1 265.3 -227 227C-255.9 188.7 -296.8 169 -324.3 134.3C-351.7 99.6 -365.7 49.8 -379.7 0L0 0Z" fill="#96446e"></path><path d="M0 253.1C-36.5 253 -73 252.9 -96.9 233.9C-120.8 214.8 -132 176.9 -151.3 151.3C-170.6 125.8 -197.9 112.7 -216.2 89.5C-234.5 66.4 -243.8 33.2 -253.1 0L0 0Z" fill="#f17c53"></path><path d="M0 126.6C-18.2 126.5 -36.5 126.4 -48.4 116.9C-60.4 107.4 -66 88.4 -75.7 75.7C-85.3 62.9 -98.9 56.3 -108.1 44.8C-117.2 33.2 -121.9 16.6 -126.6 0L0 0Z" fill="#fbae3c"></path></g><g transform="translate(0, 675)"><path d="M0 -506.2C52.9 -466 105.8 -425.7 168.4 -406.5C231 -387.3 303.3 -389.2 357.1 -357.1C410.8 -325 446 -258.9 467.7 -193.7C489.5 -128.6 497.9 -64.3 506.3 0L0 0Z" fill="#232745"></path><path d="M0 -379.7C39.7 -349.5 79.3 -319.3 126.3 -304.9C173.2 -290.5 227.5 -291.9 267.8 -267.8C308.1 -243.7 334.5 -194.2 350.8 -145.3C367.1 -96.4 373.4 -48.2 379.7 0L0 0Z" fill="#96446e"></path><path d="M0 -253.1C26.4 -233 52.9 -212.9 84.2 -203.3C115.5 -193.7 151.7 -194.6 178.5 -178.5C205.4 -162.5 223 -129.5 233.9 -96.9C244.7 -64.3 248.9 -32.1 253.1 0L0 0Z" fill="#f17c53"></path><path d="M0 -126.6C13.2 -116.5 26.4 -106.4 42.1 -101.6C57.7 -96.8 75.8 -97.3 89.3 -89.3C102.7 -81.2 111.5 -64.7 116.9 -48.4C122.4 -32.1 124.5 -16.1 126.6 0L0 0Z" fill="#fbae3c"></path></g></svg>