<svg id="visual" viewBox="0 0 900 675" width="900" height="675" xmlns="http://www.w3.org/2000/svg" xmlns:xlink="http://www.w3.org/1999/xlink" version="1.1"><path d="M0 431L21.5 429.8C43 428.7 86 426.3 128.8 424.2C171.7 422 214.3 420 257.2 415.8C300 411.7 343 405.3 385.8 408.3C428.7 411.3 471.3 423.7 514.2 422.8C557 422 600 408 642.8 401.5C685.7 395 728.3 396 771.2 393C814 390 857 383 878.5 379.5L900 376L900 676L878.5 676C857 676 814 676 771.2 676C728.3 676 685.7 676 642.8 676C600 676 557 676 514.2 676C471.3 676 428.7 676 385.8 676C343 676 300 676 257.2 676C214.3 676 171.7 676 128.8 676C86 676 43 676 21.5 676L0 676Z" fill="#0066ff"></path><path d="M0 451L21.5 457.7C43 464.3 86 477.7 128.8 482.5C171.7 487.3 214.3 483.7 257.2 475.8C300 468 343 456 385.8 448C428.7 440 471.3 436 514.2 435.7C557 435.3 600 438.7 642.8 447.2C685.7 455.7 728.3 469.3 771.2 467.7C814 466 857 449 878.5 440.5L900 432L900 676L878.5 676C857 676 814 676 771.2 676C728.3 676 685.7 676 642.8 676C600 676 557 676 514.2 676C471.3 676 428.7 676 385.8 676C343 676 300 676 257.2 676C214.3 676 171.7 676 128.8 676C86 676 43 676 21.5 676L0 676Z" fill="#0080ef"></path><path d="M0 486L21.5 496C43 506 86 526 128.8 528C171.7 530 214.3 514 257.2 509.3C300 504.7 343 511.3 385.8 510.2C428.7 509 471.3 500 514.2 502.8C557 505.7 600 520.3 642.8 527.2C685.7 534 728.3 533 771.2 528.3C814 523.7 857 515.3 878.5 511.2L900 507L900 676L878.5 676C857 676 814 676 771.2 676C728.3 676 685.7 676 642.8 676C600 676 557 676 514.2 676C471.3 676 428.7 676 385.8 676C343 676 300 676 257.2 676C214.3 676 171.7 676 128.8 676C86 676 43 676 21.5 676L0 676Z" fill="#0090d1"></path><path d="M0 580L21.5 578.5C43 577 86 574 128.8 575C171.7 576 214.3 581 257.2 579C300 577 343 568 385.8 560.8C428.7 553.7 471.3 548.3 514.2 551.3C557 554.3 600 565.7 642.8 564.7C685.7 563.7 728.3 550.3 771.2 548C814 545.7 857 554.3 878.5 558.7L900 563L900 676L878.5 676C857 676 814 676 771.2 676C728.3 676 685.7 676 642.8 676C600 676 557 676 514.2 676C471.3 676 428.7 676 385.8 676C343 676 300 676 257.2 676C214.3 676 171.7 676 128.8 676C86 676 43 676 21.5 676L0 676Z" fill="#0097ad"></path><path d="M0 621L21.5 621.5C43 622 86 623 128.8 625.3C171.7 627.7 214.3 631.3 257.2 632.5C300 633.7 343 632.3 385.8 631.8C428.7 631.3 471.3 631.7 514.2 625.2C557 618.7 600 605.3 642.8 603C685.7 600.7 728.3 609.3 771.2 613.8C814 618.3 857 618.7 878.5 618.8L900 619L900 676L878.5 676C857 676 814 676 771.2 676C728.3 676 685.7 676 642.8 676C600 676 557 676 514.2 676C471.3 676 428.7 676 385.8 676C343 676 300 676 257.2 676C214.3 676 171.7 676 128.8 676C86 676 43 676 21.5 676L0 676Z" fill="#009473"></path></svg>