<svg id="visual" viewBox="0 0 900 675" width="900" height="675" xmlns="http://www.w3.org/2000/svg" xmlns:xlink="http://www.w3.org/1999/xlink" version="1.1"><g stroke-width="1" stroke-linejoin="bevel"><path d="M479.3 312.5L469.3 259L348.7 378.5Z" fill="#205a7a" stroke="#205a7a"></path><path d="M469.3 259L339.7 225L348.7 378.5Z" fill="#00101c" stroke="#00101c"></path><path d="M339.7 225L280.1 379.5L348.7 378.5Z" fill="#081a28" stroke="#081a28"></path><path d="M469.3 259L366.7 148.5L339.7 225Z" fill="#277297" stroke="#277297"></path><path d="M339.7 225L223.1 212L280.1 379.5Z" fill="#277297" stroke="#277297"></path><path d="M283.1 110.5L223.1 212L339.7 225Z" fill="#297ea6" stroke="#297ea6"></path><path d="M280.1 379.5L349.7 492L348.7 378.5Z" fill="#081a28" stroke="#081a28"></path><path d="M348.7 378.5L544.3 487L479.3 312.5Z" fill="#19435d" stroke="#19435d"></path><path d="M349.7 492L386.7 517.5L348.7 378.5Z" fill="#246688" stroke="#246688"></path><path d="M366.7 148.5L283.1 110.5L339.7 225Z" fill="#297ea6" stroke="#297ea6"></path><path d="M280.1 379.5L238.1 461L349.7 492Z" fill="#15384f" stroke="#15384f"></path><path d="M349.7 492L266.1 675L386.7 517.5Z" fill="#15384f" stroke="#15384f"></path><path d="M137.6 454L238.1 461L280.1 379.5Z" fill="#277297" stroke="#277297"></path><path d="M386.7 517.5L544.3 487L348.7 378.5Z" fill="#1d4e6b" stroke="#1d4e6b"></path><path d="M606.9 131.5L487.3 70.5L469.3 259Z" fill="#081a28" stroke="#081a28"></path><path d="M645.9 335.5L469.3 259L479.3 312.5Z" fill="#081a28" stroke="#081a28"></path><path d="M469.3 259L487.3 70.5L366.7 148.5Z" fill="#0c2435" stroke="#0c2435"></path><path d="M366.7 148.5L376.7 0L283.1 110.5Z" fill="#277297" stroke="#277297"></path><path d="M544.3 487L645.9 335.5L479.3 312.5Z" fill="#297ea6" stroke="#297ea6"></path><path d="M386.7 517.5L492.3 537.5L544.3 487Z" fill="#246688" stroke="#246688"></path><path d="M645.9 335.5L630.9 184L469.3 259Z" fill="#1d4e6b" stroke="#1d4e6b"></path><path d="M630.9 184L606.9 131.5L469.3 259Z" fill="#00101c" stroke="#00101c"></path><path d="M238.1 461L225.1 522.5L349.7 492Z" fill="#205a7a" stroke="#205a7a"></path><path d="M386.7 517.5L389.7 675L492.3 537.5Z" fill="#1d4e6b" stroke="#1d4e6b"></path><path d="M137.6 454L225.1 522.5L238.1 461Z" fill="#246688" stroke="#246688"></path><path d="M544.3 487L594.9 499L645.9 335.5Z" fill="#297ea6" stroke="#297ea6"></path><path d="M492.3 537.5L594.9 499L544.3 487Z" fill="#297ea6" stroke="#297ea6"></path><path d="M82.6 329.5L137.6 454L280.1 379.5Z" fill="#15384f" stroke="#15384f"></path><path d="M539.3 0L376.7 0L487.3 70.5Z" fill="#277297" stroke="#277297"></path><path d="M487.3 70.5L376.7 0L366.7 148.5Z" fill="#112e42" stroke="#112e42"></path><path d="M223.1 212L82.6 329.5L280.1 379.5Z" fill="#112e42" stroke="#112e42"></path><path d="M89.6 188L82.6 329.5L223.1 212Z" fill="#1d4e6b" stroke="#1d4e6b"></path><path d="M157.6 96.5L223.1 212L283.1 110.5Z" fill="#00101c" stroke="#00101c"></path><path d="M283.1 0L157.6 96.5L283.1 110.5Z" fill="#0c2435" stroke="#0c2435"></path><path d="M376.7 0L283.1 0L283.1 110.5Z" fill="#15384f" stroke="#15384f"></path><path d="M157.6 96.5L89.6 188L223.1 212Z" fill="#19435d" stroke="#19435d"></path><path d="M606.9 131.5L539.3 0L487.3 70.5Z" fill="#15384f" stroke="#15384f"></path><path d="M647.9 675L688.9 518.5L594.9 499Z" fill="#00101c" stroke="#00101c"></path><path d="M594.9 499L749.4 407L645.9 335.5Z" fill="#15384f" stroke="#15384f"></path><path d="M809.4 183L727.4 103.5L630.9 184Z" fill="#15384f" stroke="#15384f"></path><path d="M688.9 518.5L749.4 407L594.9 499Z" fill="#277297" stroke="#277297"></path><path d="M727.4 103.5L614.9 0L606.9 131.5Z" fill="#1d4e6b" stroke="#1d4e6b"></path><path d="M606.9 131.5L614.9 0L539.3 0Z" fill="#19435d" stroke="#19435d"></path><path d="M266.1 675L349.7 492L225.1 522.5Z" fill="#297ea6" stroke="#297ea6"></path><path d="M266.1 675L389.7 675L386.7 517.5Z" fill="#1d4e6b" stroke="#1d4e6b"></path><path d="M492.3 537.5L647.9 675L594.9 499Z" fill="#1d4e6b" stroke="#1d4e6b"></path><path d="M727.4 103.5L606.9 131.5L630.9 184Z" fill="#00101c" stroke="#00101c"></path><path d="M283.1 0L164.6 0L157.6 96.5Z" fill="#246688" stroke="#246688"></path><path d="M0 69.5L0 185L89.6 188Z" fill="#1d4e6b" stroke="#1d4e6b"></path><path d="M0 405L81.6 522.5L137.6 454Z" fill="#00101c" stroke="#00101c"></path><path d="M137.6 454L81.6 522.5L225.1 522.5Z" fill="#112e42" stroke="#112e42"></path><path d="M389.7 675L466.3 675L492.3 537.5Z" fill="#19435d" stroke="#19435d"></path><path d="M805.4 301.5L630.9 184L645.9 335.5Z" fill="#00101c" stroke="#00101c"></path><path d="M0 185L0 345.5L82.6 329.5Z" fill="#1d4e6b" stroke="#1d4e6b"></path><path d="M82.6 329.5L0 405L137.6 454Z" fill="#246688" stroke="#246688"></path><path d="M0 185L82.6 329.5L89.6 188Z" fill="#1d4e6b" stroke="#1d4e6b"></path><path d="M138.6 675L266.1 675L225.1 522.5Z" fill="#277297" stroke="#277297"></path><path d="M0 345.5L0 405L82.6 329.5Z" fill="#0c2435" stroke="#0c2435"></path><path d="M0 69.5L89.6 188L157.6 96.5Z" fill="#112e42" stroke="#112e42"></path><path d="M749.4 407L805.4 301.5L645.9 335.5Z" fill="#246688" stroke="#246688"></path><path d="M805.4 301.5L809.4 183L630.9 184Z" fill="#205a7a" stroke="#205a7a"></path><path d="M81.6 522.5L138.6 675L225.1 522.5Z" fill="#081a28" stroke="#081a28"></path><path d="M0 575.5L138.6 675L81.6 522.5Z" fill="#246688" stroke="#246688"></path><path d="M466.3 675L647.9 675L492.3 537.5Z" fill="#297ea6" stroke="#297ea6"></path><path d="M688.9 518.5L753.4 597.5L749.4 407Z" fill="#15384f" stroke="#15384f"></path><path d="M749.4 407L900 363.5L805.4 301.5Z" fill="#277297" stroke="#277297"></path><path d="M164.6 0L0 69.5L157.6 96.5Z" fill="#246688" stroke="#246688"></path><path d="M647.9 675L753.4 597.5L688.9 518.5Z" fill="#00101c" stroke="#00101c"></path><path d="M0 405L0 575.5L81.6 522.5Z" fill="#0c2435" stroke="#0c2435"></path><path d="M809.4 183L779.4 0L727.4 103.5Z" fill="#0c2435" stroke="#0c2435"></path><path d="M727.4 103.5L779.4 0L614.9 0Z" fill="#205a7a" stroke="#205a7a"></path><path d="M164.6 0L0 0L0 69.5Z" fill="#00101c" stroke="#00101c"></path><path d="M900 473L900 363.5L749.4 407Z" fill="#0c2435" stroke="#0c2435"></path><path d="M805.4 301.5L900 206L809.4 183Z" fill="#205a7a" stroke="#205a7a"></path><path d="M809.4 183L900 154.5L779.4 0Z" fill="#246688" stroke="#246688"></path><path d="M900 363.5L900 206L805.4 301.5Z" fill="#15384f" stroke="#15384f"></path><path d="M900 206L900 154.5L809.4 183Z" fill="#297ea6" stroke="#297ea6"></path><path d="M753.4 597.5L900 473L749.4 407Z" fill="#081a28" stroke="#081a28"></path><path d="M647.9 675L776.4 675L753.4 597.5Z" fill="#15384f" stroke="#15384f"></path><path d="M900 601.5L900 473L753.4 597.5Z" fill="#112e42" stroke="#112e42"></path><path d="M0 575.5L0 675L138.6 675Z" fill="#00101c" stroke="#00101c"></path><path d="M776.4 675L900 601.5L753.4 597.5Z" fill="#246688" stroke="#246688"></path><path d="M900 154.5L900 0L779.4 0Z" fill="#1d4e6b" stroke="#1d4e6b"></path><path d="M776.4 675L900 675L900 601.5Z" fill="#0c2435" stroke="#0c2435"></path></g></svg>