<svg id="visual" viewBox="0 0 900 675" width="900" height="675" xmlns="http://www.w3.org/2000/svg" xmlns:xlink="http://www.w3.org/1999/xlink" version="1.1"><path d="M0 129L13.7 126.8C27.3 124.7 54.7 120.3 82 118.2C109.3 116 136.7 116 163.8 119.3C191 122.7 218 129.3 245.2 130.5C272.3 131.7 299.7 127.3 327 119.5C354.3 111.7 381.7 100.3 409 90.2C436.3 80 463.7 71 491 77.7C518.3 84.3 545.7 106.7 573 105.5C600.3 104.3 627.7 79.7 654.8 67.3C682 55 709 55 736.2 57.3C763.3 59.7 790.7 64.3 818 74.5C845.3 84.7 872.7 100.3 886.3 108.2L900 116L900 0L886.3 0C872.7 0 845.3 0 818 0C790.7 0 763.3 0 736.2 0C709 0 682 0 654.8 0C627.7 0 600.3 0 573 0C545.7 0 518.3 0 491 0C463.7 0 436.3 0 409 0C381.7 0 354.3 0 327 0C299.7 0 272.3 0 245.2 0C218 0 191 0 163.8 0C136.7 0 109.3 0 82 0C54.7 0 27.3 0 13.7 0L0 0Z" fill="#c62368"></path><path d="M0 271L13.7 266.5C27.3 262 54.7 253 82 271C109.3 289 136.7 334 163.8 340.8C191 347.7 218 316.3 245.2 299.5C272.3 282.7 299.7 280.3 327 285.8C354.3 291.3 381.7 304.7 409 297.8C436.3 291 463.7 264 491 250.5C518.3 237 545.7 237 573 225.8C600.3 214.7 627.7 192.3 654.8 178.8C682 165.3 709 160.7 736.2 187.7C763.3 214.7 790.7 273.3 818 285.8C845.3 298.3 872.7 264.7 886.3 247.8L900 231L900 114L886.3 106.2C872.7 98.3 845.3 82.7 818 72.5C790.7 62.3 763.3 57.7 736.2 55.3C709 53 682 53 654.8 65.3C627.7 77.7 600.3 102.3 573 103.5C545.7 104.7 518.3 82.3 491 75.7C463.7 69 436.3 78 409 88.2C381.7 98.3 354.3 109.7 327 117.5C299.7 125.3 272.3 129.7 245.2 128.5C218 127.3 191 120.7 163.8 117.3C136.7 114 109.3 114 82 116.2C54.7 118.3 27.3 122.7 13.7 124.8L0 127Z" fill="#c72288"></path><path d="M0 379L13.7 373.3C27.3 367.7 54.7 356.3 82 367.7C109.3 379 136.7 413 163.8 413C191 413 218 379 245.2 359.8C272.3 340.7 299.7 336.3 327 338.7C354.3 341 381.7 350 409 343.2C436.3 336.3 463.7 313.7 491 309.2C518.3 304.7 545.7 318.3 573 315C600.3 311.7 627.7 291.3 654.8 276.7C682 262 709 253 736.2 269.8C763.3 286.7 790.7 329.3 818 339.5C845.3 349.7 872.7 327.3 886.3 316.2L900 305L900 229L886.3 245.8C872.7 262.7 845.3 296.3 818 283.8C790.7 271.3 763.3 212.7 736.2 185.7C709 158.7 682 163.3 654.8 176.8C627.7 190.3 600.3 212.7 573 223.8C545.7 235 518.3 235 491 248.5C463.7 262 436.3 289 409 295.8C381.7 302.7 354.3 289.3 327 283.8C299.7 278.3 272.3 280.7 245.2 297.5C218 314.3 191 345.7 163.8 338.8C136.7 332 109.3 287 82 269C54.7 251 27.3 260 13.7 264.5L0 269Z" fill="#bd31ab"></path><path d="M0 528L13.7 541.5C27.3 555 54.7 582 82 596.5C109.3 611 136.7 613 163.8 608.5C191 604 218 593 245.2 581.8C272.3 570.7 299.7 559.3 327 543.5C354.3 527.7 381.7 507.3 409 499.5C436.3 491.7 463.7 496.3 491 512.2C518.3 528 545.7 555 573 553.8C600.3 552.7 627.7 523.3 654.8 519.8C682 516.3 709 538.7 736.2 544.3C763.3 550 790.7 539 818 532.3C845.3 525.7 872.7 523.3 886.3 522.2L900 521L900 303L886.3 314.2C872.7 325.3 845.3 347.7 818 337.5C790.7 327.3 763.3 284.7 736.2 267.8C709 251 682 260 654.8 274.7C627.7 289.3 600.3 309.7 573 313C545.7 316.3 518.3 302.7 491 307.2C463.7 311.7 436.3 334.3 409 341.2C381.7 348 354.3 339 327 336.7C299.7 334.3 272.3 338.7 245.2 357.8C218 377 191 411 163.8 411C136.7 411 109.3 377 82 365.7C54.7 354.3 27.3 365.7 13.7 371.3L0 377Z" fill="#a446cf"></path><path d="M0 676L13.7 676C27.3 676 54.7 676 82 676C109.3 676 136.7 676 163.8 676C191 676 218 676 245.2 676C272.3 676 299.7 676 327 676C354.3 676 381.7 676 409 676C436.3 676 463.7 676 491 676C518.3 676 545.7 676 573 676C600.3 676 627.7 676 654.8 676C682 676 709 676 736.2 676C763.3 676 790.7 676 818 676C845.3 676 872.7 676 886.3 676L900 676L900 519L886.3 520.2C872.7 521.3 845.3 523.7 818 530.3C790.7 537 763.3 548 736.2 542.3C709 536.7 682 514.3 654.8 517.8C627.7 521.3 600.3 550.7 573 551.8C545.7 553 518.3 526 491 510.2C463.7 494.3 436.3 489.7 409 497.5C381.7 505.3 354.3 525.7 327 541.5C299.7 557.3 272.3 568.7 245.2 579.8C218 591 191 602 163.8 606.5C136.7 611 109.3 609 82 594.5C54.7 580 27.3 553 13.7 539.5L0 526Z" fill="#715df2"></path></svg>