<svg id="visual" viewBox="0 0 900 675" width="900" height="675" xmlns="http://www.w3.org/2000/svg" xmlns:xlink="http://www.w3.org/1999/xlink" version="1.1"><rect x="0" y="0" width="900" height="675" fill="#C62368"></rect><g transform="translate(520.1076063952719 286.7736148084024)"><path d="M109.7 -167.8C135.5 -132.2 145.3 -91.3 163.5 -49.7C181.7 -8.1 208.3 34.1 205.2 73.8C202.1 113.4 169.2 150.6 130.1 208.2C90.9 265.8 45.5 343.8 7.2 333.9C-31 323.9 -62 226 -112.9 172.2C-163.8 118.4 -234.5 108.8 -284.5 66.2C-334.5 23.6 -363.6 -52 -333.4 -97C-303.2 -142 -213.6 -156.3 -148.1 -179.1C-82.7 -201.8 -41.3 -232.9 0.3 -233.3C41.9 -233.7 83.9 -203.4 109.7 -167.8" fill="#FF0066"></path></g></svg>